<?xml version="1.0" standalone="no"?>
<!DOCTYPE svg PUBLIC "-//W3C//DTD SVG 20010904//EN"
 "http://www.w3.org/TR/2001/REC-SVG-20010904/DTD/svg10.dtd">
<svg version="1.0" xmlns="http://www.w3.org/2000/svg"
 width="1024.000000pt" height="1024.000000pt" viewBox="0 0 1024.000000 1024.000000"
 preserveAspectRatio="xMidYMid meet">

<g transform="translate(0.000000,1024.000000) scale(0.100000,-0.100000)"
fill="#000000" stroke="none">
<path d="M6220 7719 c0 -87 34 -436 44 -450 174 -248 280 -436 373 -662 177
-431 189 -579 92 -1152 -83 -498 -187 -802 -402 -1185 -193 -342 -349 -535
-602 -745 -146 -122 -311 -220 -440 -260 -33 -11 -67 -25 -76 -32 -8 -7 -21
-13 -27 -13 -7 0 -12 -5 -12 -10 0 -6 -17 -8 -42 -5 -33 3 -36 2 -13 -3 29 -7
27 -9 -40 -35 -39 -15 -115 -39 -170 -54 -92 -25 -116 -27 -290 -27 -214 -1
-282 11 -490 86 -228 82 -585 275 -591 320 -1 11 3 15 13 11 13 -5 13 -2 4 15
-14 25 -14 35 -1 27 11 -7 23 35 18 61 -2 10 -47 54 -101 97 -109 88 -191 180
-244 277 -35 62 -302 470 -309 470 -14 0 52 -174 111 -290 12 -25 46 -103 75
-175 29 -71 63 -146 75 -165 52 -83 150 -194 221 -250 42 -33 134 -119 205
-191 72 -71 141 -134 154 -139 28 -10 168 -109 173 -122 2 -4 7 -8 12 -8 5 0
47 -22 94 -49 174 -101 408 -177 641 -207 244 -33 595 -7 852 61 394 104 856
376 1102 648 23 25 23 26 2 20 -11 -3 -21 -9 -21 -14 0 -5 -7 -9 -15 -9 -8 0
-53 -15 -99 -34 -46 -18 -105 -36 -132 -40 -73 -11 -104 -16 -160 -26 -28 -5
-60 -6 -72 -4 -13 4 -55 -15 -123 -54 -116 -66 -184 -102 -196 -102 -4 0 27
20 69 44 94 53 175 110 298 211 274 222 756 704 944 942 26 34 53 61 58 60 6
-1 39 53 73 121 35 67 60 122 57 122 -4 0 -31 -34 -61 -75 -30 -41 -64 -83
-75 -93 -12 -10 -93 -96 -180 -190 -88 -94 -162 -170 -164 -167 -2 2 24 48 59
102 144 227 216 411 284 728 59 275 86 547 84 845 -1 125 -14 301 -17 237 -2
-25 -4 -27 -17 -13 -8 8 -15 18 -15 22 0 17 -35 32 -53 23 -21 -12 -40 -3 -31
14 4 7 4 9 0 5 -4 -3 -21 -2 -37 2 -22 7 -29 5 -29 -6 0 -8 -2 -14 -5 -14 -10
0 -70 40 -70 47 0 5 -13 7 -28 5 -16 -2 -35 2 -43 9 -13 10 -17 10 -23 0 -11
-17 -18 40 -26 189 -17 304 -79 610 -155 760 -51 102 -193 266 -345 399 -156
137 -145 130 -145 90z m705 -1469 c3 -6 -1 -7 -9 -4 -18 7 -21 14 -7 14 6 0
13 -4 16 -10z"/>
<path d="M5225 7047 c-434 -178 -780 -423 -1165 -823 -248 -258 -411 -529
-504 -836 -45 -149 -55 -201 -65 -339 -19 -258 25 -449 148 -635 45 -68 102
-130 242 -266 101 -97 202 -191 224 -208 86 -68 309 -189 421 -229 156 -55
463 -61 754 -16 68 11 257 97 340 155 14 10 50 30 80 45 73 36 263 179 357
268 74 70 168 185 227 277 34 53 78 149 74 161 -2 5 -39 -12 -83 -38 -216
-126 -481 -255 -640 -312 -61 -22 -105 -40 -99 -40 6 -1 49 12 95 28 46 16
105 32 131 35 26 4 50 11 53 17 4 5 11 9 16 9 6 0 8 -4 5 -9 -4 -5 2 -8 11 -6
10 2 35 6 56 9 33 4 37 3 26 -10 -6 -8 -14 -12 -17 -10 -2 3 -12 -3 -21 -14
-17 -19 -151 -89 -256 -133 -80 -34 -283 -92 -403 -117 -199 -40 -555 -56
-717 -31 -230 35 -428 132 -566 278 -124 130 -252 387 -235 474 5 28 14 38 46
52 30 12 40 23 40 39 0 21 2 21 26 -9 14 -18 32 -33 39 -33 20 0 147 -70 163
-89 7 -9 25 -43 41 -76 15 -33 37 -68 47 -77 19 -16 19 -12 19 190 0 157 5
228 18 295 47 235 169 459 347 637 207 208 406 300 644 300 123 0 183 -13 283
-59 l66 -31 141 137 c78 75 154 149 171 165 29 27 29 28 10 43 -73 56 -249
135 -380 172 -103 28 -341 42 -432 25 -40 -7 -53 -6 -53 3 0 32 164 311 273
465 152 213 156 220 140 220 -5 0 -66 -24 -138 -53z"/>
<path d="M4030 6813 c-32 -6 -80 -42 -155 -118 -272 -273 -481 -559 -647 -884
-65 -127 -61 -140 6 -19 201 363 443 655 770 929 71 60 94 84 84 90 -14 9 -17
9 -58 2z"/>
<path d="M6190 5999 c-473 -367 -1035 -926 -1184 -1179 -80 -136 -114 -282
-102 -444 16 -225 17 -235 39 -242 34 -11 301 10 394 31 17 4 24 16 33 63 30
151 96 311 183 444 142 219 281 362 586 606 l174 139 -2 199 c-2 109 -6 225
-9 257 l-7 59 -112 -81 c-62 -44 -115 -77 -117 -72 -3 4 11 21 31 37 19 15 70
58 112 94 69 60 77 70 88 120 6 30 11 55 10 56 -1 1 -54 -38 -117 -87z"/>
<path d="M4160 3315 c19 -14 41 -25 49 -25 12 0 11 -3 -3 -13 -16 -12 -16 -14
-2 -26 8 -7 21 -9 28 -5 10 6 9 3 -1 -9 -12 -15 -11 -17 7 -17 12 0 26 -8 31
-17 6 -10 11 -13 11 -8 0 6 3 6 8 0 11 -16 77 -61 68 -47 -4 7 -3 12 3 12 5 0
11 -5 13 -10 6 -19 78 -22 84 -5 8 20 72 19 98 0 11 -8 16 -15 10 -15 -5 0 -1
-5 10 -11 12 -8 20 -8 25 -1 8 13 60 17 85 7 12 -5 21 -3 27 6 8 12 11 12 19
-1 8 -12 10 -12 10 -1 0 10 4 11 13 3 20 -17 121 -1 125 21 4 18 -26 24 -44 8
-5 -5 -20 -11 -34 -13 -21 -2 -25 1 -23 20 2 12 -2 22 -8 22 -5 0 -7 -4 -4
-10 8 -13 -36 -13 -55 1 -13 9 -13 10 2 6 9 -3 21 0 27 7 9 11 -6 15 -75 20
-97 8 -282 52 -405 96 -45 17 -94 30 -107 30 -25 0 -25 0 8 -25z m390 -115 c8
-5 11 -10 5 -10 -5 0 -17 5 -25 10 -8 5 -10 10 -5 10 6 0 17 -5 25 -10z m75
-10 c3 -5 1 -10 -4 -10 -6 0 -11 5 -11 10 0 6 2 10 4 10 3 0 8 -4 11 -10z
m-185 -30 c0 -5 -4 -10 -9 -10 -6 0 -13 5 -16 10 -3 6 1 10 9 10 9 0 16 -4 16
-10z"/>
<path d="M4795 3170 c3 -5 8 -10 11 -10 2 0 4 5 4 10 0 6 -5 10 -11 10 -5 0
-7 -4 -4 -10z"/>
<path d="M4890 3160 c0 -5 5 -10 11 -10 5 0 7 5 4 10 -3 6 -8 10 -11 10 -2 0
-4 -4 -4 -10z"/>
<path d="M4925 3160 c3 -5 10 -10 16 -10 5 0 9 5 9 10 0 6 -7 10 -16 10 -8 0
-12 -4 -9 -10z"/>
<path d="M4507 3143 c-14 -13 -6 -23 18 -23 14 0 25 5 25 11 0 5 -5 7 -11 3
-6 -3 -14 -1 -18 5 -4 6 -10 8 -14 4z"/>
</g>
</svg>
